<svg width="1740" height="883" viewBox="0 0 1740 883" fill="none" xmlns="http://www.w3.org/2000/svg">
<mask id="mask0_3_60" style="mask-type:alpha" maskUnits="userSpaceOnUse" x="0" y="-15" width="529" height="529">
<circle cx="264.5" cy="249.5" r="264.5" fill="#C4C4C4"/>
</mask>
<g mask="url(#mask0_3_60)">
<path d="M-39.7908 180.872C-39.7908 180.872 69.785 160.574 98.057 89.532C125.095 21.4301 236.474 3.12466 236.474 3.12466" stroke="#F7C193" stroke-width="4.42411" stroke-miterlimit="10"/>
<path d="M-39.7908 215.017C-39.7908 215.017 94.6416 191.59 129.27 105.846C162.285 23.9911 298.804 3.12466 298.804 3.12466" stroke="#F7C193" stroke-width="4.42411" stroke-miterlimit="10"/>
<path d="M-39.7908 249.258C-39.7908 249.258 119.403 222.606 160.387 122.35C199.474 26.4575 361.135 3.12466 361.135 3.12466" stroke="#F7C193" stroke-width="4.42411" stroke-miterlimit="10"/>
<path d="M-39.7908 283.404C-39.7908 283.404 144.259 253.621 191.6 138.664C236.664 29.0185 423.465 3.12466 423.465 3.12466" stroke="#F7C193" stroke-width="4.42411" stroke-miterlimit="10"/>
<path d="M-39.7908 317.55C-39.7908 317.55 169.115 284.637 222.813 155.073C273.853 31.5795 485.701 3.12466 485.701 3.12466" stroke="#F7C193" stroke-width="4.42411" stroke-miterlimit="10"/>
<path d="M-39.7908 351.79C-39.7908 351.79 193.877 315.747 253.93 171.481C311.137 34.0452 548.031 3.12466 548.031 3.12466" stroke="#F7C193" stroke-width="4.42411" stroke-miterlimit="10"/>
<path d="M-39.7908 385.936C-39.7908 385.936 218.733 346.668 285.143 187.891C348.327 36.6062 610.361 3.12466 610.361 3.12466" stroke="#F7C193" stroke-width="4.42411" stroke-miterlimit="10"/>
<path d="M-39.7908 420.081C-39.7908 420.081 243.59 377.684 316.26 204.205C385.516 39.1672 672.692 3.12466 672.692 3.12466" stroke="#F7C193" stroke-width="4.42411" stroke-miterlimit="10"/>
<path d="M-39.7908 454.322C-39.7908 454.322 268.35 408.795 347.473 220.708C422.706 41.633 734.928 3.12466 734.928 3.12466" stroke="#F7C193" stroke-width="4.42411" stroke-miterlimit="10"/>
<path d="M-39.7908 488.465C-39.7908 488.465 293.207 439.811 378.591 237.118C459.896 44.1939 797.258 3.12466 797.258 3.12466" stroke="#F7C193" stroke-width="4.42411" stroke-miterlimit="10"/>
<path d="M-39.7908 522.706C-39.7908 522.706 318.063 470.825 409.804 253.526C497.085 46.7549 859.588 3.12466 859.588 3.12466" stroke="#F7C193" stroke-width="4.42411" stroke-miterlimit="10"/>
<path d="M-39.7908 556.855C-39.7908 556.855 342.825 501.842 440.921 269.936C534.275 49.2214 921.917 3.12466 921.917 3.12466" stroke="#F7C193" stroke-width="4.42411" stroke-miterlimit="10"/>
<path d="M-39.7908 590.996C-39.7908 590.996 367.681 532.858 472.134 286.249C571.464 51.7823 984.247 3.12466 984.247 3.12466" stroke="#F7C193" stroke-width="4.42411" stroke-miterlimit="10"/>
<path d="M-39.7908 625.237C-39.7908 625.237 392.537 563.873 503.347 302.753C608.654 54.3433 1046.48 3.12466 1046.48 3.12466" stroke="#F7C193" stroke-width="4.42411" stroke-miterlimit="10"/>
<path d="M-39.7908 659.386C-39.7908 659.386 417.298 594.889 534.464 319.067C645.844 56.8091 1108.81 3.12466 1108.81 3.12466" stroke="#F7C193" stroke-width="4.42411" stroke-miterlimit="10"/>
<path d="M-39.7908 693.534C-39.7908 693.534 442.155 625.905 565.677 335.476C683.033 59.3701 1171.14 3.12466 1171.14 3.12466" stroke="#F7C193" stroke-width="4.42411" stroke-miterlimit="10"/>
<path d="M-39.7908 727.775C-39.7908 727.775 467.011 657.013 596.794 351.885C720.222 61.931 1233.47 3.12466 1233.47 3.12466" stroke="#F7C193" stroke-width="4.42411" stroke-miterlimit="10"/>
<path d="M-39.7908 761.917C-39.7908 761.917 491.773 687.937 628.007 368.294C757.412 64.3968 1295.71 3.12466 1295.71 3.12466" stroke="#F7C193" stroke-width="4.42411" stroke-miterlimit="10"/>
</g>
<mask id="mask1_3_60" style="mask-type:alpha" maskUnits="userSpaceOnUse" x="1333" y="489" width="407" height="394">
<path d="M1424.86 489L1545.05 587.723L1676.1 503.955L1619.32 648.737L1739.51 747.46L1584.23 738.218L1527.46 883L1488.27 732.505L1333 723.263L1464.05 639.495L1424.86 489Z" fill="#FF866C"/>
</mask>
<g mask="url(#mask1_3_60)">
<path d="M1723.85 855.925C1723.85 855.925 1717.15 860.954 1715.22 869.149C1713.3 877.407 1706.16 882.746 1706.16 882.746" stroke="#76F7BF" stroke-width="3.78744" stroke-miterlimit="10"/>
<path d="M1723.85 833.574C1723.85 833.574 1700.88 840.652 1694.8 858.47C1688.96 875.792 1665.37 882.808 1665.37 882.808" stroke="#76F7BF" stroke-width="3.78744" stroke-miterlimit="10"/>
<path d="M1723.85 811.223C1723.85 811.223 1684.61 820.35 1674.43 847.73C1664.56 874.116 1624.58 882.808 1624.58 882.808" stroke="#76F7BF" stroke-width="3.78744" stroke-miterlimit="10"/>
<path d="M1723.85 788.81C1723.85 788.81 1668.41 800.048 1654.01 836.989C1640.29 872.44 1583.79 882.808 1583.79 882.808" stroke="#76F7BF" stroke-width="3.78744" stroke-miterlimit="10"/>
<path d="M1723.85 766.459C1723.85 766.459 1652.14 779.746 1633.64 826.248C1615.95 870.825 1543.06 882.808 1543.06 882.808" stroke="#76F7BF" stroke-width="3.78744" stroke-miterlimit="10"/>
<path d="M1723.85 744.046C1723.85 744.046 1635.88 759.382 1613.22 815.507C1591.55 869.149 1502.27 882.808 1502.27 882.808" stroke="#76F7BF" stroke-width="3.78744" stroke-miterlimit="10"/>
<path d="M1723.85 721.695C1723.85 721.695 1619.67 739.142 1592.85 804.766C1567.27 867.473 1461.54 882.808 1461.54 882.808" stroke="#76F7BF" stroke-width="3.78744" stroke-miterlimit="10"/>
<path d="M1723.85 699.345C1723.85 699.345 1603.41 718.84 1572.43 794.087C1542.87 865.859 1420.69 882.808 1420.69 882.808" stroke="#76F7BF" stroke-width="3.78744" stroke-miterlimit="10"/>
<path d="M1723.85 676.932C1723.85 676.932 1587.14 698.475 1552 783.285C1518.54 864.182 1379.9 882.808 1379.9 882.808" stroke="#76F7BF" stroke-width="3.78744" stroke-miterlimit="10"/>
<path d="M1723.85 654.581C1723.85 654.581 1570.94 678.173 1531.64 772.606C1494.2 862.506 1339.11 882.808 1339.11 882.808" stroke="#76F7BF" stroke-width="3.78744" stroke-miterlimit="10"/>
<path d="M1723.85 632.23C1723.85 632.23 1554.67 657.933 1511.21 761.865C1469.86 860.892 1298.38 882.808 1298.38 882.808" stroke="#76F7BF" stroke-width="3.78744" stroke-miterlimit="10"/>
<path d="M1723.85 609.817C1723.85 609.817 1538.4 637.569 1490.85 751.124C1445.52 859.215 1257.59 882.808 1257.59 882.808" stroke="#76F7BF" stroke-width="3.78744" stroke-miterlimit="10"/>
<path d="M1723.85 587.466C1723.85 587.466 1522.2 617.267 1470.42 740.383C1421.18 857.601 1216.8 882.808 1216.8 882.808" stroke="#76F7BF" stroke-width="3.78744" stroke-miterlimit="10"/>
<path d="M1723.85 565.115C1723.85 565.115 1505.93 596.965 1450.05 729.642C1396.85 855.925 1176.01 882.808 1176.01 882.808" stroke="#76F7BF" stroke-width="3.78744" stroke-miterlimit="10"/>
<path d="M1723.85 542.702C1723.85 542.702 1489.67 576.663 1429.63 718.902C1372.51 854.249 1135.28 882.808 1135.28 882.808" stroke="#76F7BF" stroke-width="3.78744" stroke-miterlimit="10"/>
<path d="M1723.85 520.351C1723.85 520.351 1473.46 556.361 1409.26 708.161C1348.17 852.634 1094.49 882.808 1094.49 882.808" stroke="#76F7BF" stroke-width="3.78744" stroke-miterlimit="10"/>
<path d="M1723.85 498C1723.85 498 1457.19 536.059 1388.84 697.482C1323.83 850.958 1053.7 882.808 1053.7 882.808" stroke="#76F7BF" stroke-width="3.78744" stroke-miterlimit="10"/>
<path d="M1723.85 475.587C1723.85 475.587 1440.93 515.757 1368.41 686.679C1299.5 849.282 1012.91 882.808 1012.91 882.808" stroke="#76F7BF" stroke-width="3.78744" stroke-miterlimit="10"/>
<path d="M1723.85 453.236C1723.85 453.236 1424.72 495.455 1348.05 676C1275.16 847.667 972.118 882.808 972.118 882.808" stroke="#76F7BF" stroke-width="3.78744" stroke-miterlimit="10"/>
<path d="M1723.85 430.886C1723.85 430.886 1408.46 475.153 1327.62 665.259C1250.82 845.991 931.39 882.808 931.39 882.808" stroke="#76F7BF" stroke-width="3.78744" stroke-miterlimit="10"/>
<path d="M1723.85 408.473C1723.85 408.473 1392.19 454.789 1307.26 654.519C1226.42 844.315 890.6 882.808 890.6 882.808" stroke="#76F7BF" stroke-width="3.78744" stroke-miterlimit="10"/>
<path d="M1723.85 386.122C1723.85 386.122 1375.99 434.549 1286.83 643.778C1202.08 842.701 849.809 882.808 849.809 882.808" stroke="#76F7BF" stroke-width="3.78744" stroke-miterlimit="10"/>
</g>
</svg>
